<svg width="41" height="29" viewBox="0 0 41 29" fill="none" xmlns="http://www.w3.org/2000/svg">
<path fill-rule="evenodd" clip-rule="evenodd" d="M20.5 0C18.8826 0 17.5714 1.31117 17.5714 2.92857V12.4286L2.07143 12.4286C0.92741 12.4286 0 13.356 0 14.5C0 15.644 0.927411 16.5715 2.07143 16.5715L17.5714 16.5714V26.0714C17.5714 27.6888 18.8826 29 20.5 29C22.1174 29 23.4286 27.6888 23.4286 26.0714V16.5714L38.9286 16.5714C40.0726 16.5714 41 15.644 41 14.5C41 13.356 40.0726 12.4286 38.9286 12.4286L23.4286 12.4286V2.92857C23.4286 1.31117 22.1174 0 20.5 0Z" fill="white"/>
</svg>
